<svg width="51" height="18" viewBox="0 0 51 18" fill="none" xmlns="http://www.w3.org/2000/svg">
<path d="M1.83301 11.1407L3.34112 10.9193C3.68915 10.8727 3.80516 10.6979 3.80516 10.4765C3.80516 10.0337 3.46873 9.6724 2.77268 9.6724C2.05342 9.6724 1.64739 10.1385 1.60099 10.6746L0.127671 10.36C0.232079 9.39272 1.11375 8.33225 2.76108 8.33225C4.71003 8.33225 5.42929 9.43933 5.42929 10.6746V13.7045C5.42929 14.0308 5.46409 14.4736 5.49889 14.6834H3.97917C3.94437 14.5203 3.92117 14.1823 3.92117 13.9492C3.60795 14.4387 3.0279 14.8699 2.11143 14.8699C0.800524 14.8699 6.10352e-05 13.9842 6.10352e-05 13.017C6.10352e-05 11.9099 0.812125 11.2922 1.83301 11.1407ZM3.80516 12.2012V11.9215L2.42465 12.1313C1.99542 12.1896 1.65899 12.4343 1.65899 12.9121C1.65899 13.2733 1.92581 13.6229 2.45945 13.6229C3.15551 13.6229 3.80516 13.285 3.80516 12.2012ZM7.86548 11.5952L5.68451 8.51871H7.65666C7.86548 8.85666 8.66594 10.0104 8.87476 10.3483L10.0813 8.51871H11.9606L9.81444 11.537L12.0418 14.6834H10.0929L8.81676 12.7955C8.59634 13.1335 7.77267 14.3455 7.55226 14.6834H5.68451L7.86548 11.5952ZM17.7263 8.51871L19.0488 12.4925L20.1857 8.51871H21.833L19.9072 14.6834H18.2483L16.8098 10.4765L15.3945 14.6834H13.7123L11.7518 8.51871H13.5035L14.6404 12.4809L15.9745 8.51871H17.7263ZM23.5151 11.1407L25.0232 10.9193C25.3713 10.8727 25.4873 10.6979 25.4873 10.4765C25.4873 10.0337 25.1508 9.6724 24.4548 9.6724C23.7355 9.6724 23.3295 10.1385 23.2831 10.6746L21.8098 10.36C21.9142 9.39272 22.7959 8.33225 24.4432 8.33225C26.3921 8.33225 27.1114 9.43933 27.1114 10.6746V13.7045C27.1114 14.0308 27.1462 14.4736 27.181 14.6834H25.6613C25.6265 14.5203 25.6033 14.1823 25.6033 13.9492C25.2901 14.4387 24.71 14.8699 23.7935 14.8699C22.4826 14.8699 21.6822 13.9842 21.6822 13.017C21.6822 11.9099 22.4942 11.2922 23.5151 11.1407ZM25.4873 12.2012V11.9215L24.1068 12.1313C23.6775 12.1896 23.3411 12.4343 23.3411 12.9121C23.3411 13.2733 23.6079 13.6229 24.1416 13.6229C24.8376 13.6229 25.4873 13.285 25.4873 12.2012ZM28.1439 17.1306L29.594 13.9259L26.9838 8.53036H28.8399L30.4757 12.1429L31.9838 8.53036H33.7587L29.9072 17.1306H28.1439Z" fill="#4A4F54"/>
<path d="M48.6775 5.53541V8.68185L34.9072 2.09763V0L46.9605 5.76848V2.62204L50.116 4.13699V6.23462L48.6775 5.53541ZM37.993 7.77288V9.87051L40.1972 10.9193L36.6473 14.6951H39.0023L43.2134 10.2667L37.993 7.77288ZM48.6775 9.73067L36.5545 3.93888V6.03651L46.2065 10.6513L48.6775 9.73067Z" fill="#D22630"/>
</svg>
